<svg width="386" height="298" viewBox="0 0 386 298" fill="none" xmlns="http://www.w3.org/2000/svg">
<path fill-rule="evenodd" clip-rule="evenodd" d="M10 12.5L23.5 9.5L46.5 9L63 6L68 5.5L78 4L85.5 2.5L91 1.5L95 4H98L110.5 7L111.5 8.5L112.5 11V15L113 17L112 28.5L108 33.5L109 37V40V43L126.5 48.5L140 54L149.5 58.5L161.5 66L176.5 75.5L193 88.5L204.55 99L199.5 89.5L198 85.5L199 80L201 72.5L202.5 67.5L206.5 64.5L210.052 62.5L215.5 61.5L219 62L222 64L226.5 64.5H231.5L242.5 67.5L245 70.5L241.5 68.5L232 66H225.5H222.5L217.5 63L213 66L207 70V74L207.5 81L213.5 91.5L218.5 93.5L230 97.5L236.5 99L238 101.5L241 101L244 103.5L249.5 101.5L254 105.5L258.5 104.5L261.5 107.5L272 111L277.5 111.5L282.5 115L290 117.5L296.5 122.5L299.5 125.5L305 136L305.5 139L302.5 144L303 148L299.5 156.5L290.5 164.5L281.5 169L274.5 170L271.5 168.5H270.474L273.5 171L282 178.5L285.5 181.5L297.5 190L308.5 195.5L316.5 204.262L318.5 202L338.5 201.5L342 200.5L346.5 199L349 198L350 199L352 200.5L353.5 201.5L363.5 200L360 207.5L356 210.5H352.5L350 208L348.5 201.5L346.5 203L344.5 206.5H342L321 209.632L328.5 219.5L330.022 222L335.5 231L339 240V249.702L336.5 257.5L328.5 268L326.5 269L330.5 261L332.5 252L329 240.5L327.214 235.5L315.5 238.5L306.5 238L297 232L293.5 231L299 238L303 240.5L305 244L306 246L309 245.5L310.5 248V249.702L313.5 252L316 254L318 256.5L317 258H319.5L318 262L320 264L323 267.5L320 271.5L313.5 285.5L314 297.5L311 290L312.5 281L313.5 271L305.5 256.5L298 250L282.5 235.5L275 226.5L265.5 214L262 208.5L268 222.5L269 226L269.5 232L277 245H278L278.5 247.5H280V251.5L287.5 258L292.5 263.5L297.5 268L305.5 276L307.5 288L301.5 276L285 270.5L275.5 261L263.5 249L249 236L243 229L244 221L245 210V201L244 195.5L239.5 187.5L226.5 177L224.5 176L219.5 174L216 172L213 168.5L207 163L200 161.5L188.5 162.5L142 139.5L95.5 108L86.5 97L68.5 75.5L61 81L50 87L43 89.5L27.5 92.5L24 96H20L10 97L5.5 94.5L3.5 91.5L2 90L1.5 87.5V62.5L4 56L5.5 38L5 37L4 27V24.5V16.5L10 12.5ZM318 221L309 212.5L307 209.5L289.5 203L286 206.5L300.5 220L307 224H320.04L318 221ZM232 123L225.5 118L210.052 104L214.5 105.5L220.5 106L225.5 107.5L231.5 109.5L239 111L245.5 113L251.5 115L260.5 118L270 122.5L278 125.5L285.5 130.5L289.5 136L291.5 142.5L289.5 145.5L285.5 149.5L276 151.5L269 150.5L260.5 148L254 142.5L249 139L242.5 134L236.5 129L234 127.5L234.5 126.5L237 124L232 123Z" fill="#DDE0EF"/>
<path d="M335.5 231L336 232.286L345.5 228L351.5 227.5L360 231L363 231.5L380 244L381 246.5H383.5L382.5 237.5L376.5 232.5L371.5 228L367 225.5L361 223L357.5 222L352.5 221H348.5L347.5 218.5L345.5 219L344.5 220.5H342V219.5L341.5 218.5L339 219L338.5 221L336.5 220.5V218.5H335.5L333.5 220.5L330.022 222L335.5 231Z" fill="#DDE0EF"/>
<path d="M339 241.5V249.702L336.5 257.5L349.5 268.5L353 271L358.5 270.5L365.5 271L374.5 267L383 256L384 253L379.5 257L372.5 261L368.258 264.5H357.5L352 261.5L347 256L339 241.5Z" fill="#DDE0EF"/>
<path d="M210.052 104L209.5 103.5L204.55 99M210.052 104L225.5 118L232 123L237 124L234.5 126.5L234 127.5L236.5 129L242.5 134L249 139L254 142.5L260.5 148L269 150.5L276 151.5L285.5 149.5L289.5 145.5L291.5 142.5L289.5 136L285.5 130.5L278 125.5L270 122.5L260.5 118L251.5 115L245.5 113L239 111L231.5 109.5L225.5 107.5L220.5 106L214.5 105.5L210.052 104ZM204.55 99L193 88.5L176.5 75.5L161.5 66L149.5 58.5L140 54L126.5 48.5L109 43V40V37L108 33.5L112 28.5L113 17L112.5 15V11L111.5 8.5L110.5 7L98 4H95L91 1.5L85.5 2.5L78 4L68 5.5L63 6L46.5 9L23.5 9.5L10 12.5L4 16.5V24.5V27L5 37L5.5 38L4 56L1.5 62.5V87.5L2 90L3.5 91.5L5.5 94.5L10 97L20 96H24L27.5 92.5L43 89.5L50 87L61 81L68.5 75.5L86.5 97L95.5 108L142 139.5L188.5 162.5L200 161.5L207 163L213 168.5L216 172L219.5 174L224.5 176L226.5 177L239.5 187.5L244 195.5L245 201V210L244 221L243 229L249 236L263.5 249L275.5 261L285 270.5L301.5 276L307.5 288L305.5 276L297.5 268L292.5 263.5L287.5 258L280 251.5V247.5H278.5L278 245H277L269.5 232L269 226L268 222.5L262 208.5L265.5 214L275 226.5L282.5 235.5L298 250L305.5 256.5L313.5 271L312.5 281L311 290L314 297.5L313.5 285.5L320 271.5L323 267.5L320 264L318 262L319.5 258H317L318 256.5L316 254L313.5 252L310.5 249.702V248L309 245.5L306 246L305 244L303 240.5L299 238L293.5 231L297 232L306.5 238L315.5 238.5L327.214 235.5M204.55 99L199.5 89.5L198 85.5L199 80L201 72.5L202.5 67.5L206.5 64.5L210.052 62.5L215.5 61.5L219 62L222 64L226.5 64.5H231.5L242.5 67.5L245 70.5L241.5 68.5L232 66H225.5H222.5L217.5 63L213 66L207 70V74L207.5 81L213.5 91.5L218.5 93.5L230 97.5L236.5 99L238 101.5L241 101L244 103.5L249.5 101.5L254 105.5L258.5 104.5L261.5 107.5L272 111L277.5 111.5L282.5 115L290 117.5L296.5 122.5L299.5 125.5L305 136L305.5 139L302.5 144L303 148L299.5 156.5L290.5 164.5L281.5 169L274.5 170L271.5 168.5H270.474M328.5 219.5L319 207L316.5 204.262M328.5 219.5L330.022 222M328.5 219.5L321 209.632L342 206.5H344.5L346.5 203L348.5 201.5L350 208L352.5 210.5H356L360 207.5L363.5 200L353.5 201.5L352 200.5L350 199L349 198L346.5 199L342 200.5L338.5 201.5L318.5 202L316.5 204.262M335.5 231L339 240V249.702M335.5 231L330.022 222M335.5 231L336 232.286L345.5 228L351.5 227.5L360 231L363 231.5L380 244L381 246.5H383.5L382.5 237.5L376.5 232.5L371.5 228L367 225.5L361 223L357.5 222L352.5 221H348.5L347.5 218.5L345.5 219L344.5 220.5H342V219.5L341.5 218.5L339 219L338.5 221L336.5 220.5V218.5H335.5L333.5 220.5L330.022 222M339 249.702L336.5 257.5M339 249.702V241.5L347 256L352 261.5L357.5 264.5H368.258L372.5 261L379.5 257L384 253L383 256L374.5 267L365.5 271L358.5 270.5L353 271L349.5 268.5L336.5 257.5M336.5 257.5L328.5 268L326.5 269L330.5 261L332.5 252L329 240.5L327.214 235.5M320.04 224L326.5 233.5L327.214 235.5M320.04 224L318 221L309 212.5L307 209.5L289.5 203L286 206.5L300.5 220L307 224H320.04ZM316.5 204.262L308.5 195.5L297.5 190L285.5 181.5L282 178.5L273.5 171L270.474 168.5M270.474 168.5L262 161.5L270 168.5H270.474Z" stroke="#DDE0EF"/>
<path d="M9.5 18L13.5 19.5L19 21L47 38L60 55.5L70 82.5L65 86L58.5 84L55 87.5H48L58.5 78L43 62.5L49.5 76.5L34 63.5V57L28.5 47.5L15.5 30.5L9.5 18Z" fill="#AE8F7D"/>
<path d="M9.5 18L13.5 19.5L19 21L47 38L60 55.5L70 82.5L65 86L58.5 84L55 87.5H48L58.5 78L43 62.5L49.5 76.5L34 63.5V57L28.5 47.5L15.5 30.5L9.5 18Z" fill="url(#paint0_linear_65_86)" fill-opacity="0.8"/>
<path d="M75.5 47.5L61.5 33.5L72.5 40L67.5 31L74.5 33.5L92.5 37.5L106 40L114 42.5L125.5 47.5L137.5 54L188.5 89.5L185.5 98L183 95.5L174 103.5H165.5L168 108.5L145.5 103.5L150 108.5L124.5 90.5H127.5L119.5 84H125.5L106 75L102 79.5L85 68L75.5 59H80L78 56H81.5L75.5 47.5Z" fill="#CAB9C1"/>
<path d="M75.5 47.5L61.5 33.5L72.5 40L67.5 31L74.5 33.5L92.5 37.5L106 40L114 42.5L125.5 47.5L137.5 54L188.5 89.5L185.5 98L183 95.5L174 103.5H165.5L168 108.5L145.5 103.5L150 108.5L124.5 90.5H127.5L119.5 84H125.5L106 75L102 79.5L85 68L75.5 59H80L78 56H81.5L75.5 47.5Z" fill="url(#paint1_linear_65_86)"/>
<path d="M61.5 19.5L45 10.5L39.5 13L32 13.5L22 9.5H30.5L35.5 7.5L48 6.5L56 4.5L68.5 5.5L58.5 9.5L65 13.5L82.5 15L82 19L67.5 19.5V23.5L61.5 19.5Z" fill="#CAB9C1"/>
<path d="M61.5 19.5L45 10.5L39.5 13L32 13.5L22 9.5H30.5L35.5 7.5L48 6.5L56 4.5L68.5 5.5L58.5 9.5L65 13.5L82.5 15L82 19L67.5 19.5V23.5L61.5 19.5Z" fill="url(#paint2_linear_65_86)"/>
<path d="M5 45.5V36.5L12 39.5L21 45L30.5 54V62.5L23 70H9.5L1 80L2.5 64.5L5 66L9.5 61.5L11 50.5L7.5 42.5L5 45.5Z" fill="#CAB9C1"/>
<path d="M5 45.5V36.5L12 39.5L21 45L30.5 54V62.5L23 70H9.5L1 80L2.5 64.5L5 66L9.5 61.5L11 50.5L7.5 42.5L5 45.5Z" fill="url(#paint3_linear_65_86)"/>
<path d="M47 40.5L32 30L14 19.5H24L27 22V16.5L32 25L48.5 36.5L55 45L69 54V66.5L75 77L78 84.5L89.5 97L111.5 116L127 126.5L148.5 137L171 147.5L188.5 156.5L194 154V159L190 164L191.5 166.5H188.5L183.5 164L162 154L141 144.5L120.5 131.5L93.5 110L75 89.5L65.5 74.5L53.5 51L47 40.5Z" fill="#B5B5BF"/>
<path d="M47 40.5L32 30L14 19.5H24L27 22V16.5L32 25L48.5 36.5L55 45L69 54V66.5L75 77L78 84.5L89.5 97L111.5 116L127 126.5L148.5 137L171 147.5L188.5 156.5L194 154V159L190 164L191.5 166.5H188.5L183.5 164L162 154L141 144.5L120.5 131.5L93.5 110L75 89.5L65.5 74.5L53.5 51L47 40.5Z" fill="url(#paint4_linear_65_86)"/>
<path d="M202 142.5L194.5 153.5V158.5L190.5 164L192 167L196.5 169L200 168L204 164H206L214 170L212.5 167L212 161.5L214.5 160L218.5 157.5L214.5 154.5L211.5 154L206.5 161.5L205 160.5L204.5 157L208 150.5L209 144L205 140L202 142.5Z" fill="#826E6D"/>
<path d="M202 142.5L194.5 153.5V158.5L190.5 164L192 167L196.5 169L200 168L204 164H206L214 170L212.5 167L212 161.5L214.5 160L218.5 157.5L214.5 154.5L211.5 154L206.5 161.5L205 160.5L204.5 157L208 150.5L209 144L205 140L202 142.5Z" fill="url(#paint5_linear_65_86)" fill-opacity="0.9"/>
<path d="M212 140L206.5 135.5L213 124.5L223 123L228.5 124.5L226.5 131.5L231.5 125.5L236.5 124.5L235 128L229.5 131L227 136H231.5H235L232 141.5L228.5 145L223 141.5L215.5 138L212 140Z" fill="#B8AAA9"/>
<path d="M212 140L206.5 135.5L213 124.5L223 123L228.5 124.5L226.5 131.5L231.5 125.5L236.5 124.5L235 128L229.5 131L227 136H231.5H235L232 141.5L228.5 145L223 141.5L215.5 138L212 140Z" fill="url(#paint6_linear_65_86)" fill-opacity="0.9"/>
<path d="M268.5 223L263 214.5L263.5 220.5L267 224L268.5 223Z" fill="#9C898C"/>
<path d="M268 236V228.5L270.5 233L272 236.5L274 239L275.5 244.5L272 242L271 236.5L268 236Z" fill="#9C898C"/>
<path d="M298 209.5L306 210L307 212L298 209.5Z" fill="#9C898C"/>
<path d="M339.5 246L337.5 240H338L338.5 241L339.5 246Z" fill="#9C898C"/>
<path d="M337 258.5L337.5 253L341 261L349.5 268.5L344.5 267L337 258.5Z" fill="#9C898C"/>
<path d="M364.5 236L361 231.5L366.5 230.5L371 234.5L376 238L378 243.5H374L373 240.5L369.5 240L368.5 236.5L364.5 236Z" fill="#9C898C"/>
<path d="M380 246L382 246.5L382.5 252L380 250.5V246Z" fill="#9C898C"/>
<path d="M374 266.5L381.5 257L382 260.5L374 266.5Z" fill="#9C898C"/>
<path d="M207.5 69.5L217.5 63.5L220.707 65.2818L224.966 65.8255L230.5 65.5L232.685 66.8108L242 68L235.5 68.5L232.685 66.8108L224.966 65.8255L222 66L220.707 65.2818L218.5 65L212.5 68.5L207.5 69.5Z" fill="#9C898C"/>
<path d="M242 172L237 170.5L243 177L244 181L247 189L251.5 196L254 206L256 215L262 224.5L258.5 215.5L257 206L254 195.5L247 182.5L245.5 177.5L242 172Z" fill="#F2F6FF"/>
<path d="M271 249L261.5 229L272.5 248L281 263L260.5 239.5L271 249Z" fill="#F2F6FF"/>
<path d="M273 215L265.5 207H268.5L265 201.5L271 205.5L275.5 211.5L271.5 209L273 215Z" fill="#F2F6FF"/>
<path d="M282.5 231L277 223L276.5 221H277.5L283 225.5L280 225L282.5 231Z" fill="#F2F6FF"/>
<path d="M307 251.5L302 248.5L301 246L303 246.5L307 251.5Z" fill="#F2F6FF"/>
<path d="M286 265L285 262.5L287.5 265H286Z" fill="#F2F6FF"/>
<path d="M320 211.5L301 198L304 198.5L302 194.5L320 211.5Z" fill="#F2F6FF"/>
<path d="M268.5 171.5L273 177L265.5 171.375L268.5 171.5Z" fill="#F2F6FF"/>
<path d="M271 172L260 164.5L270 169.5L288.5 185L271 172Z" fill="#F2F6FF"/>
<path d="M268.5 159.5L258 155L254.5 152.5L268 157.5L272.5 159.5H268.5Z" fill="#F2F6FF"/>
<path d="M283.5 161L280.5 161.5L278 161L283.5 158.5L289.5 155L283.5 161Z" fill="#F2F6FF"/>
<path d="M230 151L229.5 148.5H230L233 149.5V151H230Z" fill="#F2F6FF"/>
<path d="M246.5 209.5L246 201.5L249 202V204.5L247.5 206L246.5 209.5Z" fill="#F2F6FF"/>
<path d="M244.5 228.5L245 223L247 231.5L244.5 228.5Z" fill="#F2F6FF"/>
<path d="M283 209L280.5 207.5H283V209Z" fill="#F2F6FF"/>
<path d="M291.5 221L284.5 211.5L292.5 219L299.5 224L307 228L302 227.5L291.5 221Z" fill="#F2F6FF"/>
<path d="M114.5 86.5L107 79.5L114.5 84L124.5 97L103.5 82L114.5 86.5Z" fill="#F2F6FF"/>
<path d="M265 171L265.5 171.375M265.5 171.375L273 177L268.5 171.5L265.5 171.375ZM237 170.5L242 172L245.5 177.5L247 182.5L254 195.5L257 206L258.5 215.5L262 224.5L256 215L254 206L251.5 196L247 189L244 181L243 177L237 170.5ZM261.5 229L271 249L260.5 239.5L281 263L272.5 248L261.5 229ZM265.5 207L273 215L271.5 209L275.5 211.5L271 205.5L265 201.5L268.5 207H265.5ZM277 223L282.5 231L280 225L283 225.5L277.5 221H276.5L277 223ZM302 248.5L307 251.5L303 246.5L301 246L302 248.5ZM285 262.5L286 265H287.5L285 262.5ZM301 198L320 211.5L302 194.5L304 198.5L301 198ZM260 164.5L271 172L288.5 185L270 169.5L260 164.5ZM258 155L268.5 159.5H272.5L268 157.5L254.5 152.5L258 155ZM280.5 161.5L283.5 161L289.5 155L283.5 158.5L278 161L280.5 161.5ZM229.5 148.5L230 151H233V149.5L230 148.5H229.5ZM246 201.5L246.5 209.5L247.5 206L249 204.5V202L246 201.5ZM245 223L244.5 228.5L247 231.5L245 223ZM280.5 207.5L283 209V207.5H280.5ZM284.5 211.5L291.5 221L302 227.5L307 228L299.5 224L292.5 219L284.5 211.5ZM107 79.5L114.5 86.5L103.5 82L124.5 97L114.5 84L107 79.5Z" stroke="#F2F6FF"/>
<path d="M97.5 4.5L99.5 3L105 4.5H110.5L111.5 8L108.5 8.5L108 11.5L97.5 4.5Z" fill="#E4C9D8"/>
<path d="M97.5 4.5L99.5 3L105 4.5H110.5L111.5 8L108.5 8.5L108 11.5L97.5 4.5Z" fill="url(#paint7_linear_65_86)" fill-opacity="0.2"/>
<path d="M107.5 20L113 17.5V27L109.5 33L109 37L103.5 34V30.5L108.5 30L111.5 26.5L111 22.5L110 25.5L107.5 20Z" fill="#E4C9D8"/>
<path d="M107.5 20L113 17.5V27L109.5 33L109 37L103.5 34V30.5L108.5 30L111.5 26.5L111 22.5L110 25.5L107.5 20Z" fill="url(#paint8_linear_65_86)" fill-opacity="0.2"/>
<path d="M36 88L44 88.5L43 90L37.5 90.5L32 93.5L28.5 94L24.5 95.5L26.5 91.5H31L36 88Z" fill="#E4C9D8"/>
<path d="M36 88L44 88.5L43 90L37.5 90.5L32 93.5L28.5 94L24.5 95.5L26.5 91.5H31L36 88Z" fill="url(#paint9_linear_65_86)" fill-opacity="0.2"/>
<path d="M2 88.5L0.5 81.5L9.5 70.5L3 82L2 88.5Z" fill="#E4C9D8"/>
<path d="M2 88.5L0.5 81.5L9.5 70.5L3 82L2 88.5Z" fill="url(#paint10_linear_65_86)" fill-opacity="0.2"/>
<path d="M5.5 94.5L5.55188 94.5371L7.5 95L12 96.5L20.5 95.5L14 97H9L5.55188 94.5371L5.39595 94.5H5.5Z" fill="#E4C9D8"/>
<path d="M5.5 94.5L5.55188 94.5371L7.5 95L12 96.5L20.5 95.5L14 97H9L5.55188 94.5371L5.39595 94.5H5.5Z" fill="url(#paint11_linear_65_86)" fill-opacity="0.2"/>
<path d="M7 13.5L5.5 17L4 18L4.5 21.5L5 25L5.5 32L3.5 22.5L3 17L3.5 13.5H5.25L10.5 12L19.5 14.5L7 13.5Z" fill="#E4C9D8"/>
<path d="M7 13.5L5.5 17L4 18L4.5 21.5L5 25L5.5 32L3.5 22.5L3 17L3.5 13.5H5.25L10.5 12L19.5 14.5L7 13.5Z" fill="url(#paint12_linear_65_86)" fill-opacity="0.2"/>
<path d="M285 181L271.5 168.5L274.5 170L283.5 168.5L290.5 165L300 156L303.5 147.5L303 144L306 139L305 135L301 126.5L297 120.5L291 106L286.5 97L282.5 95L274.5 95.5L272 97H266.5L261 97.5L256 101.5L259 97.5L263 96L269 94.5L274 92.5L277 91H284L285.5 92L290.5 96L299 104.5L305 112.5L310 118L315 127L317.5 130V133L315.5 139L317.5 139.5L320.5 152L319 160.5L311.5 171.5L299.5 179.5L285 181Z" fill="#CBC6CC"/>
<path d="M285 181L271.5 168.5L274.5 170L283.5 168.5L290.5 165L300 156L303.5 147.5L303 144L306 139L305 135L301 126.5L297 120.5L291 106L286.5 97L282.5 95L274.5 95.5L272 97H266.5L261 97.5L256 101.5L259 97.5L263 96L269 94.5L274 92.5L277 91H284L285.5 92L290.5 96L299 104.5L305 112.5L310 118L315 127L317.5 130V133L315.5 139L317.5 139.5L320.5 152L319 160.5L311.5 171.5L299.5 179.5L285 181Z" fill="url(#paint13_linear_65_86)" fill-opacity="0.8"/>
<path d="M317 205L309 196H311V194.5H314V197L316.5 197.5V195L318 194.5L319 196.5L327 198.5L334.5 199L342.5 201L341.5 202L330.5 202.5L317 205Z" fill="#CBC6CC"/>
<path d="M317 205L309 196H311V194.5H314V197L316.5 197.5V195L318 194.5L319 196.5L327 198.5L334.5 199L342.5 201L341.5 202L330.5 202.5L317 205Z" fill="url(#paint14_linear_65_86)" fill-opacity="0.8"/>
<path d="M349 211L336.5 207L342 206.5H344L346 203L348 202L348.5 204L350 207.5L352.25 211H355.5L359.5 208.429L362.5 203.5V200.5L360 203.5L355.5 206.5L354 205.5L352.5 201L354.5 199.5L359.5 199L362.5 198.5L365 195L369 191L369.5 184L375 178.5L371 184V190L370 193.5L367.5 196L365.5 200.5L362.5 206.5L359.5 208.429L355.5 211H352.25H349Z" fill="#CBC6CC"/>
<path d="M349 211L336.5 207L342 206.5H344L346 203L348 202L348.5 204L350 207.5L352.25 211H355.5L359.5 208.429L362.5 203.5V200.5L360 203.5L355.5 206.5L354 205.5L352.5 201L354.5 199.5L359.5 199L362.5 198.5L365 195L369 191L369.5 184L375 178.5L371 184V190L370 193.5L367.5 196L365.5 200.5L362.5 206.5L359.5 208.429L355.5 211H352.25H349Z" fill="url(#paint15_linear_65_86)" fill-opacity="0.8"/>
<path d="M298.5 209.5H306H306.5L302 205.5L286.5 193L273.5 184.5L256.5 171L263 177.5L271 187L286 205.5L287.5 206.5L298.5 209.5Z" fill="#CBC6CC"/>
<path d="M298.5 209.5H306H306.5L302 205.5L286.5 193L273.5 184.5L256.5 171L263 177.5L271 187L286 205.5L287.5 206.5L298.5 209.5Z" fill="url(#paint16_linear_65_86)" fill-opacity="0.8"/>
<path d="M224 176L226.5 176.5L229.25 175.25L229.5 172L232 173.5L235 175.5L235.5 178.5L230.5 179.5L236.5 182.5L240.5 188.5L237.5 185L230 180.5L224 176Z" fill="#656067"/>
<path d="M232 174L229.25 175.25M229.25 175.25L226.5 176.5L224 176L230 180.5L237.5 185L240.5 188.5L236.5 182.5L230.5 179.5L235.5 178.5L235 175.5L232 173.5L229.5 172L229.25 175.25Z" stroke="#656067"/>
<circle cx="221.5" cy="167.5" r="5.5" fill="black"/>
<circle cx="240.5" cy="140.5" r="5.5" fill="black"/>
<circle cx="240.5" cy="143.5" r="1.5" fill="#D9D9D9"/>
<circle cx="240" cy="138" r="2" fill="white"/>
<circle cx="221" cy="165" r="2" fill="white"/>
<circle cx="221.5" cy="170.5" r="1.5" fill="#D9D9D9"/>
<defs>
<linearGradient id="paint0_linear_65_86" x1="33.5" y1="70.5" x2="49.5" y2="35" gradientUnits="userSpaceOnUse">
<stop stop-color="#DDE0EF"/>
<stop offset="1" stop-color="#DABBCD"/>
</linearGradient>
<linearGradient id="paint1_linear_65_86" x1="138" y1="4.99999" x2="95" y2="114.5" gradientUnits="userSpaceOnUse">
<stop stop-color="#D9ADC0"/>
<stop offset="1" stop-color="#DDE0EF"/>
</linearGradient>
<linearGradient id="paint2_linear_65_86" x1="138" y1="4.99999" x2="95" y2="114.5" gradientUnits="userSpaceOnUse">
<stop stop-color="#D9ADC0"/>
<stop offset="1" stop-color="#DDE0EF"/>
</linearGradient>
<linearGradient id="paint3_linear_65_86" x1="138" y1="4.99999" x2="95" y2="114.5" gradientUnits="userSpaceOnUse">
<stop stop-color="#D9ADC0"/>
<stop offset="1" stop-color="#DDE0EF"/>
</linearGradient>
<linearGradient id="paint4_linear_65_86" x1="111.5" y1="83.5" x2="82" y2="146.5" gradientUnits="userSpaceOnUse">
<stop stop-color="#DABDCF" stop-opacity="0"/>
<stop offset="1" stop-color="#DABDCF"/>
</linearGradient>
<linearGradient id="paint5_linear_65_86" x1="224" y1="163.5" x2="198.5" y2="157" gradientUnits="userSpaceOnUse">
<stop stop-color="#DDE0EF"/>
<stop offset="1" stop-color="#918080"/>
</linearGradient>
<linearGradient id="paint6_linear_65_86" x1="243" y1="146" x2="213" y2="131.5" gradientUnits="userSpaceOnUse">
<stop stop-color="#DDE0EF"/>
<stop offset="1" stop-color="#938283"/>
</linearGradient>
<linearGradient id="paint7_linear_65_86" x1="56.75" y1="3" x2="57" y2="111.5" gradientUnits="userSpaceOnUse">
<stop stop-opacity="0"/>
<stop offset="1" stop-color="#7E3661"/>
</linearGradient>
<linearGradient id="paint8_linear_65_86" x1="56.75" y1="3" x2="57" y2="111.5" gradientUnits="userSpaceOnUse">
<stop stop-opacity="0"/>
<stop offset="1" stop-color="#7E3661"/>
</linearGradient>
<linearGradient id="paint9_linear_65_86" x1="56.75" y1="3" x2="57" y2="111.5" gradientUnits="userSpaceOnUse">
<stop stop-opacity="0"/>
<stop offset="1" stop-color="#7E3661"/>
</linearGradient>
<linearGradient id="paint10_linear_65_86" x1="56.75" y1="3" x2="57" y2="111.5" gradientUnits="userSpaceOnUse">
<stop stop-opacity="0"/>
<stop offset="1" stop-color="#7E3661"/>
</linearGradient>
<linearGradient id="paint11_linear_65_86" x1="56.75" y1="3" x2="57" y2="111.5" gradientUnits="userSpaceOnUse">
<stop stop-opacity="0"/>
<stop offset="1" stop-color="#7E3661"/>
</linearGradient>
<linearGradient id="paint12_linear_65_86" x1="56.75" y1="3" x2="57" y2="111.5" gradientUnits="userSpaceOnUse">
<stop stop-opacity="0"/>
<stop offset="1" stop-color="#7E3661"/>
</linearGradient>
<linearGradient id="paint13_linear_65_86" x1="274" y1="165.5" x2="322.5" y2="110" gradientUnits="userSpaceOnUse">
<stop stop-color="#826E6D"/>
<stop offset="1" stop-color="#DABCCE"/>
</linearGradient>
<linearGradient id="paint14_linear_65_86" x1="274" y1="165.5" x2="322.5" y2="110" gradientUnits="userSpaceOnUse">
<stop stop-color="#826E6D"/>
<stop offset="1" stop-color="#DABCCE"/>
</linearGradient>
<linearGradient id="paint15_linear_65_86" x1="274" y1="165.5" x2="322.5" y2="110" gradientUnits="userSpaceOnUse">
<stop stop-color="#826E6D"/>
<stop offset="1" stop-color="#DABCCE"/>
</linearGradient>
<linearGradient id="paint16_linear_65_86" x1="274" y1="165.5" x2="322.5" y2="110" gradientUnits="userSpaceOnUse">
<stop stop-color="#826E6D"/>
<stop offset="1" stop-color="#DABCCE"/>
</linearGradient>
</defs>
</svg>
